<?xml version="1.0" encoding="UTF-8" standalone="no"?>
<!-- Created with Inkscape (http://www.inkscape.org/) -->

<svg
   width="256"
   height="256"
   viewBox="0 0 67.733332 67.733333"
   version="1.1"
   id="svg630"
   inkscape:version="1.2.2 (732a01da63, 2022-12-09)"
   sodipodi:docname="tiles.svg"
   xmlns:inkscape="http://www.inkscape.org/namespaces/inkscape"
   xmlns:sodipodi="http://sodipodi.sourceforge.net/DTD/sodipodi-0.dtd"
   xmlns="http://www.w3.org/2000/svg"
   xmlns:svg="http://www.w3.org/2000/svg">
  <sodipodi:namedview
     id="namedview632"
     pagecolor="#505050"
     bordercolor="#ffffff"
     borderopacity="1"
     inkscape:showpageshadow="0"
     inkscape:pageopacity="0"
     inkscape:pagecheckerboard="1"
     inkscape:deskcolor="#505050"
     inkscape:document-units="px"
     showgrid="true"
     inkscape:zoom="1"
     inkscape:cx="124.5"
     inkscape:cy="11"
     inkscape:window-width="1920"
     inkscape:window-height="1017"
     inkscape:window-x="-8"
     inkscape:window-y="-8"
     inkscape:window-maximized="1"
     inkscape:current-layer="layer1">
    <inkscape:grid
       type="xygrid"
       id="grid751"
       spacingx="16.933333"
       spacingy="16.933333" />
  </sodipodi:namedview>
  <defs
     id="defs627" />
  <g
     inkscape:label="Layer 1"
     inkscape:groupmode="layer"
     id="layer1">
    <rect
       style="fill:#666666;fill-rule:evenodd;stroke-width:1.05833;stroke-linejoin:round;stop-color:#000000"
       id="rect805"
       width="16.933332"
       height="16.933332"
       x="0"
       y="0"
       rx="0" />
    <path
       style="fill:none;fill-rule:evenodd;stroke:#000000;stroke-width:0.264583px;stroke-linecap:butt;stroke-linejoin:miter;stroke-opacity:1"
       d="m 2.1290322,8.2056451 c 0.08871,0 0.1774194,0 0.2661291,0 0.6628058,0 0.608182,-0.013769 1.2862903,0.044355 0.645891,0.055362 1.3522214,0.1526601 1.9959677,0.1774195 0.7831624,0.030121 1.5671403,0.055239 2.3508065,0.044355 0.2824387,-0.00392 0.5612516,-0.065252 0.8427418,-0.08871 0.2509089,-0.02091 0.502715,-0.029123 0.7540323,-0.044355 0.2365865,-0.014338 0.4726571,-0.044355 0.7096771,-0.044355 0.237021,0 0.473219,0.028047 0.709678,0.044355 0.170312,0.011745 0.923684,0.071073 1.108871,0.08871 0.585731,0.055784 0.200627,0.044355 0.709677,0.044355 0.133065,0 0.266129,0 0.399194,0 0.02957,0 0.05914,0 0.08871,0 0.01478,0 0.0339,0.010454 0.04435,0 0.01045,-0.010454 0.01045,-0.0339 0,-0.044355 C 13.298775,8.3310332 13.192274,8.2449767 13.084677,8.1612903 12.801552,7.9410821 12.206969,7.5317685 11.931451,7.3629032 11.700042,7.2210717 11.459034,7.0955206 11.221774,6.9637097 c -1.181226,-0.6562365 -0.0036,-0.033239 -0.754032,-0.3548388 -0.01922,-0.00824 -0.02696,-0.032757 -0.04435,-0.044355 -0.02751,-0.018338 -0.06036,-0.027346 -0.08871,-0.044355 -0.04571,-0.027427 -0.08538,-0.06487 -0.133064,-0.08871 -0.07121,-0.035607 -0.149017,-0.056373 -0.2217745,-0.08871 -0.060421,-0.026854 -0.116028,-0.064153 -0.1774193,-0.08871 -0.013727,-0.00549 -0.044355,-0.014785 -0.044355,0 0,0.014785 0.030011,-0.00359 0.044355,0 0.045358,0.01134 0.091246,0.023445 0.1330645,0.044355 0.04768,0.023839 0.085384,0.064869 0.1330643,0.088709 0.07121,0.035607 0.149017,0.056373 0.221775,0.08871 0.151053,0.067135 0.293755,0.1518708 0.443548,0.2217743 0.131954,0.061578 0.266404,0.1176641 0.399193,0.1774192 0.162635,0.073925 0.325269,0.1478495 0.487904,0.2217743 0.147849,0.05914 0.298034,0.1127464 0.443548,0.1774193 0.120843,0.053708 0.235185,0.1211117 0.354839,0.1774192 0.131755,0.062003 0.268951,0.1122984 0.399193,0.1774195 0.106616,0.053308 0.205839,0.1203402 0.310484,0.1774193 0.05805,0.031662 0.11828,0.05914 0.17742,0.08871 0.05914,0.02957 0.115508,0.065493 0.177419,0.08871 0.511892,0.1919597 -0.189986,-0.1494753 0.354839,0.1774195 0.01268,0.00761 0.0339,-0.010454 0.04435,0 0.01045,0.010454 -0.01045,0.0339 0,0.044355 0.01045,0.010454 0.0339,-0.010454 0.04436,0 0.01045,0.010454 0,0.02957 0,0.044355 0,0.014785 0.01045,0.033901 0,0.044355 -0.01045,0.010454 -0.0339,-0.010454 -0.04436,0 -0.01045,0.010454 0.01045,0.0339 0,0.044355 -0.01045,0.010454 -0.0339,-0.010454 -0.04435,0 -0.01045,0.010454 0.01045,0.0339 0,0.044355 -0.01045,0.010454 -0.03113,-0.00661 -0.04436,0 -0.0374,0.018701 -0.05131,0.070008 -0.08871,0.08871 -0.04182,0.02091 -0.09297,0.020302 -0.133064,0.044355 -0.03586,0.021516 -0.05606,0.062586 -0.08871,0.08871 -0.275996,0.2207969 0.02249,-0.069582 -0.310484,0.2217743 -0.06294,0.055075 -0.114477,0.1223444 -0.177419,0.1774192 -0.0996,0.087149 -0.316343,0.2184268 -0.399194,0.3104838 -0.07132,0.079247 -0.11828,0.1774195 -0.177419,0.266129 -0.103495,0.08871 -0.211385,0.1725351 -0.310484,0.2661291 -0.167213,0.1579231 -0.320418,0.3302701 -0.487903,0.4879031 -0.08409,0.07914 -0.184477,0.140122 -0.266129,0.221775 -0.08165,0.08165 -0.144098,0.180685 -0.221775,0.266129 -0.07032,0.07736 -0.152318,0.143635 -0.221774,0.221774 -0.04911,0.05525 -0.08495,0.121291 -0.133064,0.177419 -0.05443,0.0635 -0.11828,0.11828 -0.17742,0.177419"
       id="path880" />
    <rect
       style="fill:#666666;fill-rule:evenodd;stroke-width:1.05833;stroke-linejoin:round;stop-color:#000000"
       id="rect892"
       width="16.933332"
       height="16.933332"
       x="-3.5527137e-15"
       y="-33.866665"
       rx="0"
       transform="rotate(90)" />
    <path
       style="fill:none;fill-rule:evenodd;stroke:#000000;stroke-width:0.264583px;stroke-linecap:butt;stroke-linejoin:miter;stroke-opacity:1"
       d="m 25.66102,2.1290336 c 0,0.08871 0,0.17742 0,0.26613 0,0.662805 0.01377,0.608182 -0.04435,1.28629 -0.05536,0.645891 -0.15266,1.352221 -0.17742,1.995968 -0.03012,0.783162 -0.05524,1.56714 -0.04435,2.350806 0.0039,0.282439 0.06525,0.561252 0.08871,0.842742 0.02091,0.250909 0.02912,0.502715 0.04435,0.754032 0.01434,0.236587 0.04435,0.4726574 0.04435,0.7096774 0,0.237021 -0.02805,0.473219 -0.04435,0.709678 -0.01175,0.170312 -0.07107,0.923684 -0.08871,1.108871 -0.05578,0.585731 -0.04435,0.200627 -0.04435,0.709677 0,0.133065 0,0.266129 0,0.399194 0,0.02957 0,0.05914 0,0.08871 0,0.01478 -0.01045,0.0339 0,0.04435 0.01045,0.01045 0.0339,0.01045 0.04435,0 0.09639,-0.09638 0.182443,-0.202883 0.26613,-0.31048 0.220208,-0.283125 0.629521,-0.877708 0.798387,-1.153226 0.141831,-0.231409 0.267382,-0.472417 0.399193,-0.709677 0.656237,-1.181226 0.03324,-0.0036 0.354839,-0.754032 0.0082,-0.01922 0.03276,-0.02696 0.04435,-0.04435 0.01834,-0.02751 0.02735,-0.06036 0.04435,-0.08871 0.02743,-0.04571 0.06487,-0.08538 0.08871,-0.133064 0.03561,-0.07121 0.05637,-0.149017 0.08871,-0.2217744 0.02685,-0.06042 0.06415,-0.116028 0.08871,-0.17742 0.0055,-0.01373 0.01478,-0.04435 0,-0.04435 -0.01478,0 0.0036,0.03001 0,0.04435 -0.01134,0.04536 -0.02344,0.09125 -0.04435,0.133065 -0.02384,0.04768 -0.06487,0.08538 -0.08871,0.1330644 -0.03561,0.07121 -0.05637,0.149017 -0.08871,0.221775 -0.06714,0.151053 -0.151871,0.293755 -0.221774,0.443548 -0.06158,0.131954 -0.117664,0.266404 -0.177419,0.399193 -0.07392,0.162635 -0.14785,0.325269 -0.221775,0.487904 -0.05914,0.147849 -0.112746,0.298034 -0.177419,0.443548 -0.05371,0.120843 -0.121112,0.235185 -0.177419,0.354839 -0.062,0.131755 -0.112299,0.268951 -0.17742,0.399193 -0.05331,0.106616 -0.12034,0.205839 -0.177419,0.310484 -0.03166,0.05805 -0.05914,0.11828 -0.08871,0.17742 -0.02957,0.05914 -0.06549,0.115508 -0.08871,0.177419 -0.19196,0.511892 0.149475,-0.189986 -0.17742,0.354839 -0.0076,0.01268 0.01045,0.0339 0,0.04435 -0.01045,0.01045 -0.0339,-0.01045 -0.04435,0 -0.01045,0.01045 0.01045,0.0339 0,0.04436 -0.01045,0.01045 -0.02957,0 -0.04435,0 -0.01478,0 -0.0339,0.01045 -0.04435,0 -0.01045,-0.01045 0.01045,-0.0339 0,-0.04436 -0.01045,-0.01045 -0.0339,0.01045 -0.04435,0 -0.01045,-0.01045 0.01045,-0.0339 0,-0.04435 -0.01045,-0.01045 -0.0339,0.01045 -0.04435,0 -0.01045,-0.01045 0.0066,-0.03113 0,-0.04436 -0.0187,-0.0374 -0.07001,-0.05131 -0.08871,-0.08871 -0.02091,-0.04182 -0.0203,-0.09297 -0.04435,-0.133064 -0.02152,-0.03586 -0.06259,-0.05606 -0.08871,-0.08871 -0.220796,-0.275996 0.06958,0.02249 -0.221774,-0.310484 -0.05508,-0.06294 -0.122344,-0.114477 -0.177419,-0.177419 -0.08715,-0.0996 -0.218427,-0.316343 -0.310484,-0.399194 -0.07925,-0.07132 -0.177419,-0.11828 -0.266129,-0.177419 -0.08871,-0.103495 -0.172535,-0.211385 -0.266129,-0.310484 -0.157923,-0.167213 -0.33027,-0.320418 -0.487903,-0.487903 -0.07914,-0.08409 -0.140122,-0.184477 -0.221775,-0.266129 -0.08165,-0.08165 -0.180685,-0.144098 -0.266129,-0.221775 -0.07736,-0.07032 -0.143635,-0.152318 -0.221774,-0.221774 -0.05525,-0.04911 -0.121291,-0.08495 -0.177419,-0.133064 -0.0635,-0.05443 -0.11828,-0.11828 -0.177419,-0.17742"
       id="path894" />
    <rect
       style="fill:#666666;fill-rule:evenodd;stroke-width:1.05833;stroke-linejoin:round;stop-color:#000000"
       id="rect896"
       width="16.933332"
       height="16.933332"
       x="-33.866665"
       y="-33.866665"
       rx="0"
       transform="scale(-1)" />
    <path
       style="fill:none;fill-rule:evenodd;stroke:#000000;stroke-width:0.264583px;stroke-linecap:butt;stroke-linejoin:miter;stroke-opacity:1"
       d="m 31.73763,25.661021 c -0.08871,0 -0.17742,0 -0.26613,0 -0.662805,0 -0.608182,0.01377 -1.28629,-0.04435 -0.645891,-0.05536 -1.352221,-0.15266 -1.995968,-0.17742 -0.783162,-0.03012 -1.56714,-0.05524 -2.350806,-0.04435 -0.282439,0.0039 -0.561252,0.06525 -0.842742,0.08871 -0.250909,0.02091 -0.502715,0.02912 -0.754032,0.04435 -0.236587,0.01434 -0.472657,0.04435 -0.709677,0.04435 -0.237021,0 -0.473219,-0.02805 -0.709678,-0.04435 -0.170312,-0.01175 -0.923684,-0.07107 -1.108871,-0.08871 -0.585731,-0.05578 -0.200627,-0.04435 -0.709677,-0.04435 -0.133065,0 -0.266129,0 -0.399194,0 -0.02957,0 -0.05914,0 -0.08871,0 -0.01478,0 -0.0339,-0.01045 -0.04435,0 -0.01045,0.01045 -0.01045,0.0339 0,0.04435 0.09638,0.09639 0.202883,0.182443 0.31048,0.26613 0.283125,0.220208 0.877708,0.629521 1.153226,0.798387 0.231409,0.141831 0.472417,0.267382 0.709677,0.399193 1.181226,0.656237 0.0036,0.03324 0.754032,0.354839 0.01922,0.0082 0.02696,0.03276 0.04435,0.04435 0.02751,0.01834 0.06036,0.02735 0.08871,0.04435 0.04571,0.02743 0.08538,0.06487 0.133064,0.08871 0.07121,0.03561 0.149017,0.05637 0.221774,0.08871 0.06042,0.02685 0.116028,0.06415 0.17742,0.08871 0.01373,0.0055 0.04435,0.01478 0.04435,0 0,-0.01478 -0.03001,0.0036 -0.04435,0 -0.04536,-0.01134 -0.09125,-0.02344 -0.133065,-0.04435 -0.04768,-0.02384 -0.08538,-0.06487 -0.133064,-0.08871 -0.07121,-0.03561 -0.149017,-0.05637 -0.221775,-0.08871 -0.151053,-0.06714 -0.293755,-0.151871 -0.443548,-0.221774 -0.131954,-0.06158 -0.266404,-0.117664 -0.399193,-0.177419 -0.162635,-0.07392 -0.325269,-0.14785 -0.487904,-0.221775 -0.147849,-0.05914 -0.298034,-0.112746 -0.443548,-0.177419 -0.120843,-0.05371 -0.235185,-0.121112 -0.354839,-0.177419 -0.131755,-0.062 -0.268951,-0.112299 -0.399193,-0.17742 -0.106616,-0.05331 -0.205839,-0.12034 -0.310484,-0.177419 -0.05805,-0.03166 -0.11828,-0.05914 -0.17742,-0.08871 -0.05914,-0.02957 -0.115508,-0.06549 -0.177419,-0.08871 -0.511892,-0.19196 0.189986,0.149475 -0.354839,-0.17742 -0.01268,-0.0076 -0.0339,0.01045 -0.04435,0 -0.01045,-0.01045 0.01045,-0.0339 0,-0.04435 -0.01045,-0.01045 -0.0339,0.01045 -0.04436,0 -0.01045,-0.01045 0,-0.02957 0,-0.04435 0,-0.01478 -0.01045,-0.0339 0,-0.04435 0.01045,-0.01045 0.0339,0.01045 0.04436,0 0.01045,-0.01045 -0.01045,-0.0339 0,-0.04435 0.01045,-0.01045 0.0339,0.01045 0.04435,0 0.01045,-0.01045 -0.01045,-0.0339 0,-0.04435 0.01045,-0.01045 0.03113,0.0066 0.04436,0 0.0374,-0.0187 0.05131,-0.07001 0.08871,-0.08871 0.04182,-0.02091 0.09297,-0.0203 0.133064,-0.04435 0.03586,-0.02152 0.05606,-0.06259 0.08871,-0.08871 0.275996,-0.220796 -0.02249,0.06958 0.310484,-0.221774 0.06294,-0.05508 0.114477,-0.122344 0.177419,-0.177419 0.0996,-0.08715 0.316343,-0.218427 0.399194,-0.310484 0.07132,-0.07925 0.11828,-0.177419 0.177419,-0.266129 0.103495,-0.08871 0.211385,-0.172535 0.310484,-0.266129 0.167213,-0.157923 0.320418,-0.33027 0.487903,-0.487903 0.08409,-0.07914 0.184477,-0.140122 0.266129,-0.221775 0.08165,-0.08165 0.144098,-0.180685 0.221775,-0.266129 0.07032,-0.07736 0.152318,-0.143635 0.221774,-0.221774 0.04911,-0.05525 0.08495,-0.121291 0.133064,-0.177419 0.05443,-0.0635 0.11828,-0.11828 0.17742,-0.177419"
       id="path898" />
    <rect
       style="fill:#666666;fill-rule:evenodd;stroke-width:1.05833;stroke-linejoin:round;stop-color:#000000"
       id="rect900"
       width="16.933332"
       height="16.933332"
       x="-33.866665"
       y="0"
       rx="0"
       transform="rotate(-90)" />
    <path
       style="fill:none;fill-rule:evenodd;stroke:#000000;stroke-width:0.264583px;stroke-linecap:butt;stroke-linejoin:miter;stroke-opacity:1"
       d="m 8.2056419,31.737629 c 0,-0.08871 0,-0.17742 0,-0.26613 0,-0.662805 -0.01377,-0.608182 0.04435,-1.28629 0.05536,-0.645891 0.15266,-1.352221 0.17742,-1.995968 0.03012,-0.783162 0.05524,-1.56714 0.04435,-2.350806 -0.0039,-0.282439 -0.06525,-0.561252 -0.08871,-0.842742 -0.02091,-0.250909 -0.02912,-0.502715 -0.04435,-0.754032 -0.01434,-0.236587 -0.04435,-0.472657 -0.04435,-0.709677 0,-0.237021 0.02805,-0.473219 0.04435,-0.709678 0.01175,-0.170312 0.07107,-0.923684 0.08871,-1.108871 0.05578,-0.585731 0.04435,-0.200627 0.04435,-0.709677 0,-0.133065 0,-0.266129 0,-0.399194 0,-0.02957 0,-0.05914 0,-0.08871 0,-0.01478 0.01045,-0.0339 0,-0.04435 -0.01045,-0.01045 -0.0339,-0.01045 -0.04435,0 -0.09639,0.09638 -0.182443,0.202883 -0.26613,0.31048 -0.220208,0.283125 -0.629521,0.877708 -0.798387,1.153226 -0.141831,0.231409 -0.267382,0.472417 -0.399193,0.709677 -0.656237,1.181226 -0.03324,0.0036 -0.354839,0.754032 -0.0082,0.01922 -0.03276,0.02696 -0.04435,0.04435 -0.01834,0.02751 -0.02735,0.06036 -0.04435,0.08871 -0.02743,0.04571 -0.06487,0.08538 -0.08871,0.133064 -0.03561,0.07121 -0.05637,0.149017 -0.08871,0.221774 -0.02685,0.06042 -0.06415,0.116028 -0.08871,0.17742 -0.0055,0.01373 -0.01478,0.04435 0,0.04435 0.01478,0 -0.0036,-0.03001 0,-0.04435 0.01134,-0.04536 0.02344,-0.09125 0.04435,-0.133065 0.02384,-0.04768 0.06487,-0.08538 0.08871,-0.133064 0.03561,-0.07121 0.05637,-0.149017 0.08871,-0.221775 0.06714,-0.151053 0.151871,-0.293755 0.221774,-0.443548 0.06158,-0.131954 0.117664,-0.266404 0.177419,-0.399193 0.07392,-0.162635 0.14785,-0.325269 0.221775,-0.487904 0.05914,-0.147849 0.112746,-0.298034 0.177419,-0.443548 0.05371,-0.120843 0.121112,-0.235185 0.177419,-0.354839 0.062,-0.131755 0.112299,-0.268951 0.17742,-0.399193 0.05331,-0.106616 0.12034,-0.205839 0.177419,-0.310484 0.03166,-0.05805 0.05914,-0.11828 0.08871,-0.17742 0.02957,-0.05914 0.06549,-0.115508 0.08871,-0.177419 0.19196,-0.511892 -0.149475,0.189986 0.17742,-0.354839 0.0076,-0.01268 -0.01045,-0.0339 0,-0.04435 0.01045,-0.01045 0.0339,0.01045 0.04435,0 0.01045,-0.01045 -0.01045,-0.0339 0,-0.04436 0.01045,-0.01045 0.02957,0 0.04435,0 0.01478,0 0.0339,-0.01045 0.04435,0 0.01045,0.01045 -0.01045,0.0339 0,0.04436 0.01045,0.01045 0.0339,-0.01045 0.04435,0 0.01045,0.01045 -0.01045,0.0339 0,0.04435 0.01045,0.01045 0.0339,-0.01045 0.04435,0 0.01045,0.01045 -0.0066,0.03113 0,0.04436 0.0187,0.0374 0.07001,0.05131 0.08871,0.08871 0.02091,0.04182 0.0203,0.09297 0.04435,0.133064 0.02152,0.03586 0.06259,0.05606 0.08871,0.08871 0.220796,0.275996 -0.06958,-0.02249 0.221774,0.310484 0.05508,0.06294 0.122344,0.114477 0.177419,0.177419 0.08715,0.0996 0.218427,0.316343 0.310484,0.399194 0.07925,0.07132 0.177419,0.11828 0.266129,0.177419 0.08871,0.103495 0.172535,0.211385 0.266129,0.310484 0.1579231,0.167213 0.3302701,0.320418 0.4879031,0.487903 0.07914,0.08409 0.140122,0.184477 0.221775,0.266129 0.08165,0.08165 0.180685,0.144098 0.266129,0.221775 0.07736,0.07032 0.143635,0.152318 0.221774,0.221774 0.05525,0.04911 0.121291,0.08495 0.177419,0.133064 0.0635,0.05443 0.11828,0.11828 0.177419,0.17742"
       id="path902" />
  </g>
</svg>
