<?xml version="1.0" encoding="UTF-8" standalone="no"?>
<!-- Created with Inkscape (http://www.inkscape.org/) -->

<svg
   width="256"
   height="256"
   viewBox="0 0 67.733332 67.733333"
   version="1.1"
   id="svg630"
   inkscape:version="1.2.2 (732a01da63, 2022-12-09)"
   sodipodi:docname="tiles.svg"
   inkscape:export-filename="tiles.png"
   inkscape:export-xdpi="96"
   inkscape:export-ydpi="96"
   xmlns:inkscape="http://www.inkscape.org/namespaces/inkscape"
   xmlns:sodipodi="http://sodipodi.sourceforge.net/DTD/sodipodi-0.dtd"
   xmlns="http://www.w3.org/2000/svg"
   xmlns:svg="http://www.w3.org/2000/svg">
  <sodipodi:namedview
     id="namedview632"
     pagecolor="#505050"
     bordercolor="#ffffff"
     borderopacity="1"
     inkscape:showpageshadow="0"
     inkscape:pageopacity="0"
     inkscape:pagecheckerboard="1"
     inkscape:deskcolor="#505050"
     inkscape:document-units="px"
     showgrid="true"
     inkscape:zoom="4"
     inkscape:cx="66.75"
     inkscape:cy="69"
     inkscape:window-width="1920"
     inkscape:window-height="1017"
     inkscape:window-x="-8"
     inkscape:window-y="-8"
     inkscape:window-maximized="1"
     inkscape:current-layer="layer1"
     showguides="true"
     inkscape:lockguides="false">
    <inkscape:grid
       type="xygrid"
       id="grid751"
       spacingx="16.933333"
       spacingy="16.933333" />
    <sodipodi:guide
       position="25.444059,70.118714"
       orientation="1,0"
       id="guide7645"
       inkscape:locked="false" />
    <sodipodi:guide
       position="-6.6145832,42.333333"
       orientation="0,1"
       id="guide9250"
       inkscape:locked="false"
       inkscape:label=""
       inkscape:color="rgb(0,134,229)" />
  </sodipodi:namedview>
  <defs
     id="defs627">
    <inkscape:path-effect
       effect="mirror_symmetry"
       start_point="0,25.4"
       end_point="15.436623,25.4"
       center_point="7.7183115,21.915021"
       id="path-effect7793"
       is_visible="true"
       lpeversion="1.2"
       lpesatellites=""
       mode="free"
       discard_orig_path="false"
       fuse_paths="true"
       oposite_fuse="true"
       split_items="false"
       split_open="false"
       link_styles="false" />
  </defs>
  <g
     inkscape:label="Layer 1"
     inkscape:groupmode="layer"
     id="layer1">
    <rect
       style="fill:#666666;fill-rule:evenodd;stroke-width:1.05833;stroke-linejoin:round;stop-color:#000000"
       id="rect7711"
       width="8.4666681"
       height="13.939914"
       x="25.399998"
       y="1.4967089"
       rx="0" />
    <rect
       style="fill:#666666;fill-rule:evenodd;stroke-width:1.05833;stroke-linejoin:round;stop-color:#000000"
       id="rect805"
       width="16.933332"
       height="16.933332"
       x="0"
       y="0"
       rx="0" />
    <path
       style="fill:none;fill-rule:evenodd;stroke:#000000;stroke-width:0.264583px;stroke-linecap:butt;stroke-linejoin:miter;stroke-opacity:1"
       d="m 2.1290322,8.2056451 c 0.08871,0 0.1774194,0 0.2661291,0 0.6628058,0 0.608182,-0.013769 1.2862903,0.044355 0.645891,0.055362 1.3522214,0.1526601 1.9959677,0.1774195 0.7831624,0.030121 1.5671403,0.055239 2.3508065,0.044355 0.2824387,-0.00392 0.5612516,-0.065252 0.8427418,-0.08871 0.2509089,-0.02091 0.502715,-0.029123 0.7540323,-0.044355 0.2365865,-0.014338 0.4726571,-0.044355 0.7096771,-0.044355 0.237021,0 0.473219,0.028047 0.709678,0.044355 0.170312,0.011745 0.923684,0.071073 1.108871,0.08871 0.585731,0.055784 0.200627,0.044355 0.709677,0.044355 0.133065,0 0.266129,0 0.399194,0 0.02957,0 0.05914,0 0.08871,0 0.01478,0 0.0339,0.010454 0.04435,0 0.01045,-0.010454 0.01045,-0.0339 0,-0.044355 C 13.298775,8.3310332 13.192274,8.2449767 13.084677,8.1612903 12.801552,7.9410821 12.206969,7.5317685 11.931451,7.3629032 11.700042,7.2210717 11.459034,7.0955206 11.221774,6.9637097 c -1.181226,-0.6562365 -0.0036,-0.033239 -0.754032,-0.3548388 -0.01922,-0.00824 -0.02696,-0.032757 -0.04435,-0.044355 -0.02751,-0.018338 -0.06036,-0.027346 -0.08871,-0.044355 -0.04571,-0.027427 -0.08538,-0.06487 -0.133064,-0.08871 -0.07121,-0.035607 -0.149017,-0.056373 -0.2217745,-0.08871 -0.060421,-0.026854 -0.116028,-0.064153 -0.1774193,-0.08871 -0.013727,-0.00549 -0.044355,-0.014785 -0.044355,0 0,0.014785 0.030011,-0.00359 0.044355,0 0.045358,0.01134 0.091246,0.023445 0.1330645,0.044355 0.04768,0.023839 0.085384,0.064869 0.1330643,0.088709 0.07121,0.035607 0.149017,0.056373 0.221775,0.08871 0.151053,0.067135 0.293755,0.1518708 0.443548,0.2217743 0.131954,0.061578 0.266404,0.1176641 0.399193,0.1774192 0.162635,0.073925 0.325269,0.1478495 0.487904,0.2217743 0.147849,0.05914 0.298034,0.1127464 0.443548,0.1774193 0.120843,0.053708 0.235185,0.1211117 0.354839,0.1774192 0.131755,0.062003 0.268951,0.1122984 0.399193,0.1774195 0.106616,0.053308 0.205839,0.1203402 0.310484,0.1774193 0.05805,0.031662 0.11828,0.05914 0.17742,0.08871 0.05914,0.02957 0.115508,0.065493 0.177419,0.08871 0.511892,0.1919597 -0.189986,-0.1494753 0.354839,0.1774195 0.01268,0.00761 0.0339,-0.010454 0.04435,0 0.01045,0.010454 -0.01045,0.0339 0,0.044355 0.01045,0.010454 0.0339,-0.010454 0.04436,0 0.01045,0.010454 0,0.02957 0,0.044355 0,0.014785 0.01045,0.033901 0,0.044355 -0.01045,0.010454 -0.0339,-0.010454 -0.04436,0 -0.01045,0.010454 0.01045,0.0339 0,0.044355 -0.01045,0.010454 -0.0339,-0.010454 -0.04435,0 -0.01045,0.010454 0.01045,0.0339 0,0.044355 -0.01045,0.010454 -0.03113,-0.00661 -0.04436,0 -0.0374,0.018701 -0.05131,0.070008 -0.08871,0.08871 -0.04182,0.02091 -0.09297,0.020302 -0.133064,0.044355 -0.03586,0.021516 -0.05606,0.062586 -0.08871,0.08871 -0.275996,0.2207969 0.02249,-0.069582 -0.310484,0.2217743 -0.06294,0.055075 -0.114477,0.1223444 -0.177419,0.1774192 -0.0996,0.087149 -0.316343,0.2184268 -0.399194,0.3104838 -0.07132,0.079247 -0.11828,0.1774195 -0.177419,0.266129 -0.103495,0.08871 -0.211385,0.1725351 -0.310484,0.2661291 -0.167213,0.1579231 -0.320418,0.3302701 -0.487903,0.4879031 -0.08409,0.07914 -0.184477,0.140122 -0.266129,0.221775 -0.08165,0.08165 -0.144098,0.180685 -0.221775,0.266129 -0.07032,0.07736 -0.152318,0.143635 -0.221774,0.221774 -0.04911,0.05525 -0.08495,0.121291 -0.133064,0.177419 -0.05443,0.0635 -0.11828,0.11828 -0.17742,0.177419"
       id="path880" />
    <rect
       style="fill:#666666;fill-rule:evenodd;stroke-width:1.05833;stroke-linejoin:round;stop-color:#000000"
       id="rect1317"
       width="16.933332"
       height="13.939914"
       x="33.866669"
       y="1.4967089"
       rx="0" />
    <circle
       style="fill:#808080;fill-rule:evenodd;stroke:none;stroke-width:1.05833;stroke-linejoin:round;stop-color:#000000"
       id="path1475"
       cx="42.333332"
       cy="8.4666662"
       r="8.4666662" />
    <circle
       style="fill:none;fill-rule:evenodd;stroke:#ff5633;stroke-width:1.05833;stroke-linejoin:round;stroke-opacity:1;stop-color:#000000"
       id="circle1531"
       cx="42.333332"
       cy="8.4666662"
       r="6.5490074" />
    <circle
       style="fill:none;fill-rule:evenodd;stroke:#ff5633;stroke-width:1.05833;stroke-linejoin:round;stroke-opacity:1;stop-color:#000000"
       id="circle2087"
       cx="42.333332"
       cy="8.4666662"
       r="5.0055261" />
    <circle
       style="fill:none;fill-rule:evenodd;stroke:#ff5633;stroke-width:1.05833;stroke-linejoin:round;stroke-opacity:1;stop-color:#000000"
       id="circle2815"
       cx="42.333332"
       cy="8.4666662"
       r="3.4152722" />
    <g
       id="g9256">
      <rect
         style="fill:#ffb380;fill-rule:evenodd;stroke:#d38d5f;stroke-width:0.529167;stroke-linejoin:miter;stroke-dasharray:none;stroke-opacity:1;stop-color:#000000"
         id="rect7647"
         width="14.594724"
         height="14.594724"
         x="18.102636"
         y="18.102636" />
      <path
         style="font-variation-settings:normal;opacity:1;fill:none;fill-opacity:1;fill-rule:evenodd;stroke:#d38d5f;stroke-width:0.529167;stroke-linecap:round;stroke-linejoin:miter;stroke-miterlimit:4;stroke-dasharray:none;stroke-dashoffset:0;stroke-opacity:1;stop-color:#000000;stop-opacity:1"
         d="m 18.102634,18.102641 9.265202,2.336424 v 9.567092 l -9.265202,2.691206"
         id="path7701" />
      <path
         style="font-variation-settings:normal;opacity:1;fill:#c87137;fill-opacity:1;fill-rule:evenodd;stroke:#d38d5f;stroke-width:0.529167;stroke-linecap:round;stroke-linejoin:miter;stroke-miterlimit:4;stroke-dasharray:none;stroke-dashoffset:0;stroke-opacity:1;stop-color:#000000;stop-opacity:1"
         d="m 32.697359,32.697363 -7.77228,-1.981674"
         id="path7707" />
      <path
         style="font-variation-settings:normal;opacity:1;fill:#808080;fill-opacity:1;fill-rule:evenodd;stroke:#d38d5f;stroke-width:0.529167;stroke-linecap:round;stroke-linejoin:miter;stroke-miterlimit:4;stroke-dasharray:none;stroke-dashoffset:0;stroke-opacity:1;stop-color:#000000;stop-opacity:1"
         d="m 32.697359,18.102641 -7.804091,1.712408"
         id="path7709" />
    </g>
    <rect
       style="fill:#666666;fill-rule:evenodd;stroke-width:1.05833;stroke-linejoin:round;stop-color:#000000"
       id="rect7787"
       width="16.933332"
       height="13.939914"
       x="0"
       y="18.430042"
       rx="0" />
    <rect
       style="fill:#666666;fill-rule:evenodd;stroke-width:1.05833;stroke-linejoin:round;stop-color:#000000"
       id="rect7789"
       width="16.933332"
       height="13.939914"
       x="16.933332"
       y="-15.436623"
       rx="0"
       transform="rotate(90)" />
    <path
       id="path7791"
       style="font-variation-settings:normal;opacity:1;vector-effect:none;fill:#4d4d4d;fill-opacity:1;fill-rule:evenodd;stroke:none;stroke-width:4.99999;stroke-linecap:round;stroke-linejoin:miter;stroke-miterlimit:4;stroke-dasharray:none;stroke-dashoffset:0;stroke-opacity:1;-inkscape-stroke:none;stop-color:#000000;stop-opacity:1"
       d="M 8.4666666 18.429883 L 5.6968098 21.199739 L 5.6968098 22.630143 L 0 22.630143 L 0 25.400516 L 0 28.169856 L 5.6968098 28.169856 L 5.6968098 29.599227 L 8.4666666 32.369083 L 11.236523 29.60026 L 11.236523 28.169856 L 12.666927 28.169856 L 15.4373 25.400516 L 12.666927 22.630143 L 11.236523 22.630143 L 11.236523 21.199739 L 8.4666666 18.429883 z " />
  </g>
</svg>
